<svg width="512" height="512" viewBox="0 0 512 512" fill="none" xmlns="http://www.w3.org/2000/svg">
<g clip-path="url(#clip0)">
<path d="M125.696 125.994C120.176 125.994 115.696 130.474 115.696 135.994C115.696 141.514 120.176 145.994 125.696 145.994C131.216 145.994 135.696 141.514 135.696 135.994C135.696 130.474 131.216 125.994 125.696 125.994Z" fill="white"/>
<path d="M215.691 312.984H185.693V282.986C185.693 277.464 181.215 272.986 175.693 272.986C170.171 272.986 165.694 277.464 165.694 282.986V312.984H135.696C130.174 312.984 125.696 317.462 125.696 322.983C125.696 328.504 130.174 332.983 135.696 332.983H165.694V362.981C165.694 368.503 170.172 372.981 175.693 372.981C181.214 372.981 185.693 368.503 185.693 362.981V332.983H215.691C221.213 332.983 225.691 328.505 225.691 322.983C225.691 317.461 221.214 312.984 215.691 312.984Z" fill="white"/>
<path d="M485.578 321.984C463.473 283.698 414.597 270.595 376.304 292.705L335.686 316.155V229.319C335.686 218.584 332.136 207.931 325.687 199.321L275.69 132.66V104.274C287.328 100.146 295.689 89.032 295.689 75.995V29.998C295.687 13.457 282.23 0 265.689 0H85.698C69.157 0 55.699 13.457 55.699 29.998V75.996C55.699 89.031 64.06 100.147 75.698 104.275V132.661L25.697 199.326C19.251 207.932 15.701 218.584 15.701 229.319V422.979C15.701 450.548 38.13 472.976 65.698 472.976H226.4C248.821 510.559 297.167 523.137 335.064 501.255L456.3 431.258C494.255 409.34 507.794 360.479 485.578 321.984ZM75.698 29.998C75.698 24.484 80.184 19.998 85.697 19.998H265.688C271.202 19.998 275.688 24.484 275.688 29.998V75.996C275.688 81.51 271.202 85.995 265.688 85.995H85.698C80.184 85.995 75.699 81.509 75.699 75.996V29.998H75.698ZM41.701 211.319L93.697 141.993C94.995 140.263 95.697 138.157 95.697 135.993V105.995H255.689V125.994H165.694C160.172 125.994 155.694 130.472 155.694 135.994C155.694 141.516 160.172 145.994 165.694 145.994H260.689L309.682 211.316C312.884 215.591 314.873 220.706 315.474 225.99H35.913C36.513 220.705 38.502 215.59 41.701 211.319ZM65.699 452.977C49.158 452.977 35.701 439.52 35.701 422.979V412.88H217.376C214.205 425.845 214.226 439.693 217.857 452.978H65.699V452.977ZM225.219 392.98H35.7V245.987H315.686V327.7L255.067 362.702C242.428 370.003 232.212 380.396 225.219 392.98ZM325.066 483.935C296.369 500.506 259.699 490.706 243.117 461.989C226.456 432.995 236.553 396.491 265.069 380.02L319.346 348.682L379.343 452.597L325.066 483.935ZM446.3 413.939L396.663 442.598L336.665 338.681L386.303 310.025C415.019 293.447 451.676 303.264 468.258 331.982C484.913 360.844 474.785 397.49 446.3 413.939Z" fill="white"/>
</g>
<defs>
<clipPath id="clip0">
<rect width="512" height="512" fill="white"/>
</clipPath>
</defs>
</svg>
