<svg width="512" height="512" viewBox="0 0 512 512" fill="none" xmlns="http://www.w3.org/2000/svg">
<g clip-path="url(#clip0)">
<path d="M192.358 291.361C188.458 287.451 182.118 287.451 178.218 291.361C174.308 295.261 174.308 301.591 178.218 305.501C182.118 309.401 188.458 309.401 192.358 305.501C196.268 301.591 196.268 295.261 192.358 291.361Z" fill="white"/>
<path d="M503.207 65.36L446.628 8.784C435.048 -2.77 416.12 -3.084 404.216 8.792C392.492 20.516 392.491 39.488 404.216 51.214L411.286 58.284L363.277 106.3C360 103.023 331.119 74.142 327.919 70.941C324.013 67.038 317.682 67.037 313.777 70.941C309.872 74.846 309.871 81.178 313.777 85.084L320.846 92.153C317.272 95.726 150.69 262.319 138.09 274.92C121.23 291.779 114.776 314.954 118.687 336.753L100.44 355C88.745 366.696 88.745 385.724 100.439 397.421L2.92899 494.928C-0.976006 498.834 -0.976006 505.166 2.92899 509.071C6.83499 512.976 13.166 512.976 17.072 509.071L114.58 411.563C126.275 423.257 145.305 423.258 157.001 411.562L175.251 393.312C197.991 397.372 221.099 389.894 237.079 373.912C276.624 334.37 379.635 231.364 419.847 191.154L426.916 198.223C430.822 202.128 437.153 202.128 441.058 198.223C444.963 194.318 444.964 187.986 441.058 184.08C437.857 180.879 409.005 152.026 405.699 148.721L453.716 100.713L460.776 107.773C472.497 119.525 491.52 119.501 503.208 107.783C514.93 96.06 514.933 77.087 503.207 65.36ZM142.859 397.418C138.961 401.316 132.618 401.316 128.721 397.418C111.486 380.183 115.679 384.375 114.581 383.277C110.682 379.381 110.682 373.039 114.58 369.141L126.017 357.704C129.041 363.291 132.83 368.441 137.23 372.999C142.209 378.157 147.971 382.558 154.295 385.981L142.859 397.418ZM270.14 312.57L263.07 305.5C259.165 301.596 252.833 301.596 248.928 305.5C245.023 309.405 245.023 315.737 248.928 319.643L255.997 326.712L241.857 340.851L220.638 319.638C216.733 315.735 210.401 315.735 206.496 319.64C202.591 323.546 202.593 329.878 206.498 333.783L227.714 354.992L222.936 359.769C203.267 379.44 171.003 379.353 151.491 359.001C132.979 339.693 132.659 308.632 152.231 289.062L213.57 227.715L284.283 298.427L270.14 312.57ZM405.704 177.011L383.279 199.435L362.057 178.22C358.152 174.316 351.82 174.317 347.915 178.222C344.01 182.128 344.012 188.46 347.917 192.365L369.136 213.577L354.989 227.723L347.917 220.651C344.011 216.748 337.68 216.747 333.775 220.651C329.87 224.556 329.869 230.888 333.775 234.794L340.846 241.866L326.708 256.003L305.497 234.792C301.592 230.888 295.26 230.888 291.355 234.792C287.45 238.697 287.45 245.029 291.355 248.935L312.565 270.145L298.422 284.287L227.709 213.575L334.987 106.297L405.704 177.011ZM391.557 134.58L377.418 120.441L425.427 72.425L439.574 86.572L391.557 134.58ZM489.056 93.649C485.221 97.493 478.882 97.604 474.928 93.639C470.126 88.837 425.972 44.683 418.358 37.069C414.438 33.15 414.464 26.827 418.348 22.942C422.297 19.002 428.593 19.04 432.495 22.933L489.065 79.502C492.95 83.387 492.998 89.706 489.056 93.649Z" fill="white"/>
</g>
<defs>
<clipPath id="clip0">
<rect width="512" height="512" fill="white"/>
</clipPath>
</defs>
</svg>
