<svg width="512" height="512" viewBox="0 0 512 512" fill="none" xmlns="http://www.w3.org/2000/svg">
<path d="M396 236C390.48 236 386 240.48 386 246C386 251.52 390.48 256 396 256C401.52 256 406 251.52 406 246C406 240.48 401.52 236 396 236Z" fill="white"/>
<path d="M116 236C110.48 236 106 240.48 106 246C106 251.52 110.48 256 116 256C121.52 256 126 251.52 126 246C126 240.48 121.52 236 116 236Z" fill="white"/>
<path d="M346 276H296V226C296 220.478 291.522 216 286 216H226C220.478 216 216 220.478 216 226V276H166C160.478 276 156 280.478 156 286V346C156 351.522 160.478 356 166 356H216V406C216 411.522 220.478 416 226 416H286C291.522 416 296 411.522 296 406V356H346C351.522 356 356 351.522 356 346V286C356 280.478 351.522 276 346 276ZM336 336H286C280.478 336 276 340.478 276 346V396H236V346C236 340.478 231.522 336 226 336H176V296H226C231.522 296 236 291.522 236 286V236H276V286C276 291.522 280.478 296 286 296H336V336Z" fill="white"/>
<path d="M462 136H386V76C386 42.916 359.084 16 326 16H186C152.916 16 126 42.916 126 76V136H50C22.43 136 0 158.43 0 186V446C0 473.57 22.43 496 50 496H462C489.57 496 512 473.57 512 446V186C512 158.43 489.57 136 462 136ZM146 76C146 53.944 163.944 36 186 36H326C348.056 36 366 53.944 366 76V136H346V86C346 69.458 332.542 56 316 56H196C179.458 56 166 69.458 166 86V136H146V76ZM326 86V136H186V86C186 80.486 190.486 76 196 76H316C321.514 76 326 80.486 326 86ZM66 476H50C33.458 476 20 462.542 20 446V186C20 169.458 33.458 156 50 156H66V476ZM426 476H406V286C406 280.478 401.522 276 396 276C390.478 276 386 280.478 386 286V476H126V286C126 280.478 121.522 276 116 276C110.478 276 106 280.478 106 286V476H86V156H106V206C106 211.522 110.478 216 116 216C121.522 216 126 211.522 126 206V156H386V206C386 211.522 390.478 216 396 216C401.522 216 406 211.522 406 206V156H426V476ZM492 446C492 462.542 478.542 476 462 476H446V156H462C478.542 156 492 169.458 492 186V446Z" fill="white"/>
</svg>
