<svg width="512" height="512" viewBox="0 0 512 512" fill="none" xmlns="http://www.w3.org/2000/svg">
<path d="M385.968 46.993C380.448 46.993 375.968 51.473 375.968 56.993C375.968 62.513 380.448 66.993 385.968 66.993C391.488 66.993 395.968 62.513 395.968 56.993C395.968 51.473 391.49 46.993 385.968 46.993Z" fill="white"/>
<path d="M395.123 7.99901C332.409 -12.111 279.998 10.393 255.969 24.26C231.942 10.39 179.539 -12.115 116.81 7.99901C33.738 34.646 -5.209 155.948 61.398 253.824C92.955 300.176 97.169 335.929 101.63 373.782C104.896 401.491 108.273 430.144 122.379 463.642C131.865 486.162 145.274 511.923 165.113 511.921C165.292 511.921 165.475 511.919 165.655 511.915C181.608 511.538 194.464 495.716 207.336 460.611C213.893 442.716 218.094 421.6 222.157 401.181C229.47 364.427 237.033 326.422 256.04 326.289C256.074 326.289 256.107 326.289 256.141 326.289C274.94 326.289 282.486 364.307 289.784 401.072C293.849 421.556 298.053 442.739 304.609 460.613C317.497 495.772 330.352 511.619 346.29 511.995C346.471 511.999 346.65 512.001 346.831 512.001C366.63 512.001 380.057 486.199 389.557 463.641C403.037 431.63 406.568 403.048 409.983 375.407C414.791 336.49 419.332 299.732 450.612 253.718C517.999 154.578 476.801 34.182 395.123 7.99901ZM434.07 242.474C400.074 292.484 395.02 333.393 390.132 372.955C386.735 400.452 383.526 426.424 371.123 455.877C356.407 490.816 347.873 492 346.794 492C346.782 492 346.772 492 346.762 492C346.377 491.991 337.176 491.345 323.387 453.726C317.367 437.314 313.318 416.91 309.402 397.178C305.006 375.028 300.854 354.105 294.01 337.774C285.253 316.879 272.525 306.287 256.174 306.287C256.083 306.287 255.99 306.287 255.899 306.288C239.48 306.403 226.704 317.077 217.929 338.015C211.088 354.337 206.937 375.196 202.544 397.278C198.629 416.95 194.582 437.293 188.56 453.728C174.796 491.266 165.573 491.912 165.187 491.921C164.291 491.937 155.657 491.117 140.815 455.88C127.808 424.991 124.742 398.981 121.497 371.442C116.95 332.863 112.248 292.971 77.936 242.572C17.891 154.341 54.085 49.127 122.921 27.046C182.781 7.85101 232.184 32.786 250.645 44.399C253.898 46.446 258.038 46.447 261.291 44.4C279.759 32.79 329.174 7.85701 389.018 27.047C459.217 49.548 492.901 155.924 434.07 242.474Z" fill="white"/>
<path d="M437.074 103.527C433.826 94.098 429.521 85.422 424.28 77.739C421.167 73.175 414.946 72 410.384 75.113C405.821 78.225 404.646 84.446 407.759 89.009C411.996 95.22 415.497 102.297 418.165 110.041C428.13 138.965 425.53 172.714 411.031 202.635C408.622 207.605 410.699 213.586 415.669 215.995C420.64 218.404 426.621 216.327 429.029 211.357C445.817 176.714 448.75 137.411 437.074 103.527Z" fill="white"/>
<path d="M219.628 136.797L179.371 123.378L165.952 83.121C164.591 79.038 160.769 76.283 156.465 76.283C152.161 76.283 148.34 79.037 146.978 83.121L133.559 123.378L93.302 136.797C89.219 138.158 86.464 141.98 86.464 146.284C86.464 150.588 89.218 154.409 93.302 155.771L133.559 169.19L146.978 209.447C148.339 213.53 152.161 216.285 156.465 216.285C160.769 216.285 164.59 213.531 165.952 209.447L179.371 169.19L219.628 155.771C223.711 154.41 226.466 150.588 226.466 146.284C226.466 141.98 223.712 138.159 219.628 136.797ZM168.303 151.797C165.317 152.792 162.973 155.135 161.978 158.122L156.465 174.662L150.952 158.122C149.957 155.136 147.614 152.792 144.627 151.797L128.087 146.284L144.627 140.771C147.613 139.776 149.957 137.433 150.952 134.446L156.465 117.906L161.978 134.446C162.973 137.432 165.316 139.776 168.303 140.771L184.843 146.284L168.303 151.797Z" fill="white"/>
</svg>
