<svg width="512" height="512" viewBox="0 0 512 512" fill="none" xmlns="http://www.w3.org/2000/svg">
<path d="M326 256C320.48 256 316 260.48 316 266C316 271.52 320.48 276 326 276C331.52 276 336 271.52 336 266C336 260.48 331.52 256 326 256Z" fill="white"/>
<path d="M416 416H404.054L371.499 233.479C365.439 200.174 336.472 176 302.62 176H209.38C175.522 176 146.558 200.175 140.505 233.513L107.946 416H96C79.458 416 66 429.458 66 446V486C66 491.522 70.477 496 76 496H436C441.522 496 446 491.522 446 486V446C446 429.458 432.542 416 416 416ZM160.189 237.056C164.508 213.267 185.196 196 209.38 196H302.62C326.801 196 347.493 213.268 351.815 237.025L383.738 416H128.262L160.189 237.056ZM426 476H86V446C86 440.486 90.486 436 96 436C118.473 436 402.383 436 416 436C421.514 436 426 440.486 426 446V476Z" fill="white"/>
<path d="M358.239 384.213L343.569 303.463C342.582 298.027 337.367 294.419 331.943 295.411C326.508 296.398 322.904 301.603 323.891 307.037L338.561 387.787C339.555 393.263 344.803 396.823 350.187 395.839C355.622 394.852 359.227 389.646 358.239 384.213Z" fill="white"/>
<path d="M502 256H416C410.478 256 406 260.478 406 266C406 271.522 410.478 276 416 276H502C507.522 276 512 271.522 512 266C512 260.478 507.522 256 502 256Z" fill="white"/>
<path d="M96 256H10C4.477 256 0 260.478 0 266C0 271.522 4.477 276 10 276H96C101.523 276 106 271.522 106 266C106 260.478 101.523 256 96 256Z" fill="white"/>
<path d="M432.781 89.219C428.875 85.315 422.545 85.315 418.638 89.219L362.068 145.789C358.163 149.694 358.163 156.026 362.068 159.932C365.975 163.837 372.304 163.836 376.211 159.932L432.781 103.362C436.687 99.456 436.687 93.124 432.781 89.219Z" fill="white"/>
<path d="M149.932 145.789L93.362 89.219C89.456 85.315 83.125 85.314 79.219 89.219C75.314 93.124 75.314 99.456 79.219 103.362L135.789 159.932C139.696 163.837 146.026 163.837 149.932 159.932C153.837 156.027 153.837 149.695 149.932 145.789Z" fill="white"/>
<path d="M256 16C250.478 16 246 20.478 246 26V106C246 111.522 250.478 116 256 116C261.522 116 266 111.522 266 106V26C266 20.478 261.522 16 256 16Z" fill="white"/>
</svg>
