<svg width="512" height="512" viewBox="0 0 512 512" fill="none" xmlns="http://www.w3.org/2000/svg">
<path d="M176 326C170.48 326 166 330.48 166 336C166 341.52 170.48 346 176 346C181.52 346 186 341.52 186 336C186 330.48 181.52 326 176 326Z" fill="white"/>
<path d="M416 40C405.047 40 315.384 40 304.995 40C300.35 17.206 280.146 0 256 0C231.854 0 211.65 17.206 207.005 40C196.616 40 106.953 40 96 40C79.458 40 66 53.458 66 70V482C66 498.542 79.458 512 96 512H416C432.542 512 446 498.542 446 482V70C446 53.458 432.542 40 416 40ZM186 60H216C221.522 60 226 55.522 226 50C226 33.458 239.458 20 256 20C272.542 20 286 33.458 286 50C286 55.522 290.478 60 296 60H326V80H186V60ZM386 100V452H126V100H386ZM426 482C426 487.514 421.514 492 416 492H96C90.486 492 86 487.514 86 482V70C86 64.486 90.486 60 96 60H166V80H116C110.478 80 106 84.478 106 90V462C106 467.522 110.478 472 116 472H396C401.522 472 406 467.522 406 462V90C406 84.478 401.522 80 396 80H346V60H416C421.514 60 426 64.486 426 70V482Z" fill="white"/>
<path d="M336 386H176C170.478 386 166 390.478 166 396C166 401.522 170.478 406 176 406H336C341.522 406 346 401.522 346 396C346 390.478 341.522 386 336 386Z" fill="white"/>
<path d="M336 326H216C210.478 326 206 330.478 206 336C206 341.522 210.478 346 216 346H336C341.522 346 346 341.522 346 336C346 330.478 341.522 326 336 326Z" fill="white"/>
<path d="M256 146C217.402 146 186 177.402 186 216C186 254.598 217.402 286 256 286C294.598 286 326 254.598 326 216C326 177.402 294.598 146 256 146ZM256 266C228.43 266 206 243.57 206 216C206 188.43 228.43 166 256 166C283.57 166 306 188.43 306 216C306 243.57 283.57 266 256 266Z" fill="white"/>
<path d="M276 206H266V196C266 190.478 261.522 186 256 186C250.478 186 246 190.478 246 196V206H236C230.478 206 226 210.478 226 216C226 221.522 230.478 226 236 226H246V236C246 241.522 250.478 246 256 246C261.522 246 266 241.522 266 236V226H276C281.522 226 286 221.522 286 216C286 210.478 281.522 206 276 206Z" fill="white"/>
</svg>
