<svg width="512" height="512" viewBox="0 0 512 512" fill="none" xmlns="http://www.w3.org/2000/svg">
<g clip-path="url(#clip0)">
<path d="M454.701 57.301C450.801 53.391 444.462 53.391 440.562 57.301C436.652 61.201 436.652 67.54 440.562 71.44C444.462 75.35 450.801 75.35 454.701 71.44C458.611 67.541 458.611 61.201 454.701 57.301Z" fill="white"/>
<path d="M343.061 248.934C339.161 245.024 332.822 245.024 328.922 248.934C325.012 252.834 325.012 259.173 328.922 263.073C332.822 266.983 339.161 266.983 343.061 263.073C346.971 259.173 346.971 252.834 343.061 248.934Z" fill="white"/>
<path d="M303.065 208.938C299.165 205.028 292.826 205.028 288.926 208.938C285.016 212.838 285.016 219.177 288.926 223.077C292.826 226.987 299.165 226.987 303.065 223.077C306.974 219.177 306.974 212.837 303.065 208.938Z" fill="white"/>
<path d="M303.065 288.93C299.165 285.02 292.826 285.02 288.926 288.93C285.016 292.83 285.016 299.169 288.926 303.069C292.826 306.979 299.165 306.979 303.065 303.069C306.974 299.169 306.974 292.83 303.065 288.93Z" fill="white"/>
<path d="M263.068 168.941C259.168 165.031 252.829 165.031 248.929 168.941C245.019 172.841 245.019 179.18 248.929 183.08C252.829 186.99 259.168 186.99 263.068 183.08C266.978 179.18 266.978 172.841 263.068 168.941Z" fill="white"/>
<path d="M263.068 248.934C259.168 245.024 252.829 245.024 248.929 248.934C245.019 252.834 245.019 259.173 248.929 263.073C252.829 266.983 259.168 266.983 263.068 263.073C266.978 259.173 266.978 252.834 263.068 248.934Z" fill="white"/>
<path d="M263.068 328.927C259.168 325.017 252.829 325.017 248.929 328.927C245.019 332.827 245.019 339.166 248.929 343.066C252.829 346.976 259.168 346.976 263.068 343.066C266.978 339.166 266.978 332.826 263.068 328.927Z" fill="white"/>
<path d="M223.072 208.938C219.172 205.028 212.833 205.028 208.933 208.938C205.023 212.838 205.023 219.177 208.933 223.077C212.833 226.987 219.172 226.987 223.072 223.077C226.982 219.177 226.982 212.837 223.072 208.938Z" fill="white"/>
<path d="M223.072 288.93C219.172 285.02 212.833 285.02 208.933 288.93C205.023 292.83 205.023 299.169 208.933 303.069C212.833 306.979 219.172 306.979 223.072 303.069C226.982 299.169 226.982 292.83 223.072 288.93Z" fill="white"/>
<path d="M183.076 248.934C179.176 245.024 172.837 245.024 168.937 248.934C165.027 252.834 165.027 259.173 168.937 263.073C172.837 266.983 179.176 266.983 183.076 263.073C186.985 259.173 186.985 252.834 183.076 248.934Z" fill="white"/>
<path d="M411.548 256.001L479.761 187.788C522.745 144.804 522.751 75.229 479.761 32.24C436.781 -10.74 367.2 -10.748 324.212 32.24L255.999 100.453L187.786 32.24C144.799 -10.745 75.229 -10.75 32.237 32.24C-10.744 75.223 -10.749 144.801 32.237 187.789L100.45 256.002L32.237 324.215C-10.743 367.198 -10.748 436.777 32.238 479.763C75.218 522.743 144.799 522.751 187.787 479.763L255.999 411.55L324.212 479.763C367.194 522.744 436.773 522.75 479.761 479.763C522.742 436.78 522.747 367.202 479.761 324.214L411.548 256.001ZM338.353 46.383C373.44 11.295 430.531 11.294 465.618 46.383C500.788 81.552 500.792 138.476 465.618 173.648L397.405 241.861L270.141 114.596L338.353 46.383ZM46.379 173.649C11.291 138.562 11.291 81.47 46.379 46.383C81.548 11.214 138.471 11.209 173.644 46.383L241.857 114.596L114.592 241.862L46.379 173.649ZM173.645 465.622C138.558 500.71 81.465 500.71 46.38 465.622C11.292 430.535 11.292 373.443 46.38 338.357L114.593 270.144L241.858 397.409L173.645 465.622ZM128.734 256.003L256 128.737L383.265 256.002L255.999 383.269L128.734 256.003ZM465.619 465.622C430.532 500.71 373.439 500.71 338.354 465.622L270.141 397.409L397.407 270.144L465.619 338.356C500.707 373.443 500.707 430.535 465.619 465.622Z" fill="white"/>
<path d="M471.32 100.614C470.584 95.141 465.554 91.303 460.077 92.037C454.603 92.773 450.765 97.806 451.5 103.28C453.604 118.921 448.442 134.263 437.341 145.372L390.335 192.378C386.43 196.283 386.43 202.614 390.335 206.52C394.24 210.423 400.57 210.424 404.476 206.519L451.484 159.51C467.032 143.952 474.261 122.484 471.32 100.614Z" fill="white"/>
</g>
<defs>
<clipPath id="clip0">
<rect width="512.001" height="512.001" fill="white"/>
</clipPath>
</defs>
</svg>
