<svg width="512" height="512" viewBox="0 0 512 512" fill="none" xmlns="http://www.w3.org/2000/svg">
<path d="M176 186C170.48 186 166 190.48 166 196C166 201.52 170.48 206 176 206C181.52 206 186 201.52 186 196C186 190.48 181.52 186 176 186Z" fill="white"/>
<path d="M256 146C236.639 146 217.584 151.126 200.896 160.823C196.121 163.598 194.5 169.719 197.274 174.494C200.048 179.269 206.169 180.89 210.944 178.116C224.584 170.189 240.165 166 256 166C305.626 166 346 206.374 346 256C346 305.626 305.626 346 256 346C206.374 346 166 305.626 166 256C166 248.755 166.869 241.53 168.583 234.528C169.896 229.164 166.612 223.75 161.247 222.437C155.879 221.116 150.469 224.408 149.156 229.772C147.062 238.33 146 247.154 146 256C146 316.654 195.346 366 256 366C316.654 366 366 316.654 366 256C366 195.346 316.654 146 256 146Z" fill="white"/>
<path d="M472 216C453.396 216 437.718 228.767 433.266 246H405.664C403.507 213.016 390.702 182.097 368.903 157.239L390.167 135.974C405.115 144.827 425.295 143.276 438.78 129.791C454.37 114.2 454.371 88.823 438.777 73.216C423.175 57.628 397.799 57.629 382.208 73.219C368.723 86.706 367.174 106.886 376.025 121.832L354.761 143.096C329.905 121.298 298.985 108.493 266 106.336V78.734C283.233 74.282 296 58.604 296 40C296 17.944 278.056 0 256 0C233.944 0 216 17.944 216 40C216 58.604 228.767 74.282 246 78.734V106.336C213.016 108.493 182.097 121.298 157.239 143.097L135.974 121.832C144.825 106.886 143.277 86.707 129.791 73.219C114.2 57.629 88.823 57.628 73.216 73.222C57.627 88.823 57.628 114.2 73.219 129.79C86.706 143.279 106.887 144.826 121.833 135.975L143.097 157.239C121.299 182.095 108.493 213.015 106.336 246H78.734C74.282 228.767 58.604 216 40 216C17.944 216 0 233.944 0 256C0 278.056 17.944 296 40 296C58.604 296 74.282 283.233 78.734 266H106.336C108.493 298.984 121.298 329.903 143.097 354.761L121.833 376.026C106.885 367.173 86.705 368.724 73.22 382.209C57.63 397.8 57.629 423.177 73.223 438.784C88.821 454.368 114.197 454.375 129.792 438.781C143.277 425.294 144.826 405.114 135.975 390.168L157.239 368.904C182.095 390.702 213.015 403.507 246 405.664V433.266C228.767 437.718 216 453.396 216 472C216 494.056 233.944 512 256 512C278.056 512 296 494.056 296 472C296 453.396 283.233 437.718 266 433.266V405.664C298.984 403.507 329.903 390.702 354.761 368.903L376.026 390.168C367.155 405.148 368.749 425.319 382.209 438.781C397.799 454.37 423.176 454.372 438.784 438.778C454.372 423.176 454.371 397.799 438.781 382.21C425.294 368.721 405.113 367.174 390.167 376.025L368.903 354.761C390.701 329.905 403.507 298.985 405.664 266H433.266C437.718 283.233 453.396 296 472 296C494.056 296 512 278.056 512 256C512 233.944 494.056 216 472 216ZM396.351 87.361C404.144 79.568 416.836 79.564 424.636 87.358C432.433 95.162 432.435 107.852 424.639 115.648C424.639 115.648 424.639 115.648 424.639 115.649C416.839 123.449 404.187 123.492 396.348 115.645C388.532 107.837 388.53 95.182 396.351 87.361ZM115.646 115.651C107.836 123.47 95.182 123.471 87.361 115.648C79.565 107.852 79.567 95.162 87.358 87.364C95.155 79.573 107.849 79.56 115.649 87.361C123.464 95.175 123.476 107.828 115.646 115.651ZM40 276C28.972 276 20 267.028 20 256C20 244.972 28.972 236 40 236C51.028 236 60 244.972 60 256C60 267.028 51.028 276 40 276ZM115.649 424.639C107.853 432.434 95.161 432.434 87.364 424.642C79.567 416.838 79.565 404.148 87.361 396.351C95.161 388.551 107.813 388.508 115.652 396.355C123.468 404.163 123.47 416.818 115.649 424.639ZM396.354 396.349C404.165 388.53 416.818 388.53 424.639 396.351C432.435 404.148 432.433 416.838 424.642 424.636C416.839 432.434 404.147 432.435 396.351 424.639C388.536 416.825 388.524 404.172 396.354 396.349ZM236 40C236 28.972 244.972 20 256 20C267.028 20 276 28.972 276 40C276 51.028 267.028 60 256 60C244.972 60 236 51.028 236 40ZM276 472C276 483.028 267.028 492 256 492C244.972 492 236 483.028 236 472C236 460.972 244.972 452 256 452C267.028 452 276 460.972 276 472ZM348.006 347.85C347.979 347.876 347.95 347.898 347.924 347.924C347.898 347.95 347.876 347.979 347.851 348.005C323.299 372.506 290.684 386 256 386C221.279 386 188.63 372.479 164.072 347.931C139.521 323.369 126 290.722 126 256C126 221.315 139.494 188.7 163.994 164.15C164.02 164.124 164.049 164.102 164.076 164.076C164.102 164.05 164.124 164.021 164.149 163.995C188.701 139.494 221.316 126 256 126C290.721 126 323.37 139.521 347.928 164.069C372.479 188.631 386 221.278 386 256C386 290.685 372.506 323.3 348.006 347.85ZM472 276C460.972 276 452 267.028 452 256C452 244.972 460.972 236 472 236C483.028 236 492 244.972 492 256C492 267.028 483.028 276 472 276Z" fill="white"/>
</svg>
