<svg width="512" height="512" viewBox="0 0 512 512" fill="none" xmlns="http://www.w3.org/2000/svg">
<path d="M286 382.001C280.48 382.001 276 386.481 276 392.001C276 397.521 280.48 402.001 286 402.001C291.52 402.001 296 397.521 296 392.001C296 386.481 291.52 382.001 286 382.001Z" fill="white"/>
<path d="M426.542 422.015L418.347 397.429C442.673 371.408 456 337.766 456 302.001C456 239.017 413.939 183.953 354.788 166.739L379.3 124.281C382.061 119.498 380.422 113.383 375.639 110.621L366.979 105.621L376.979 88.301L385.639 93.301C390.411 96.056 396.531 94.435 399.299 89.641L419.299 55.001C422.059 50.221 420.42 44.102 415.639 41.341L346.359 1.341C341.578 -1.419 335.46 0.218997 332.699 5.001L312.699 39.641C309.939 44.421 311.577 50.54 316.359 53.301L325.019 58.301L315.019 75.621L306.359 70.621C301.58 67.861 295.459 69.499 292.699 74.281L217.699 204.19L209.039 199.19C204.261 196.429 198.14 198.068 195.379 202.85L175.379 237.491C172.617 242.274 174.256 248.389 179.039 251.151L282.959 311.151C287.709 313.895 293.841 312.302 296.619 307.491L316.619 272.85C319.381 268.067 317.742 261.952 312.959 259.19L304.299 254.19L311.684 241.399C346.55 238.9 376 266.9 376 302.001C376 312.703 373.241 322.92 367.98 331.984C354.999 325.432 340.663 322.001 326 322.001C305.055 322.001 284.72 329.081 268.307 342.001H170.72C151.663 342.001 134.526 352.591 125.994 369.642L117.054 387.532C115.505 390.632 115.671 394.312 117.493 397.26C119.315 400.208 122.534 402.002 125.999 402.002H232.128L225.461 422.002H86V422.001C69.458 422.001 56 435.459 56 452.001V502.001C56 507.523 60.477 512.001 66 512.001H446C451.523 512.001 456 507.523 456 502.001V452.001C456 435.641 442.834 422.306 426.542 422.015ZM345.02 23.661L396.98 53.661L386.98 70.98C375.413 64.302 348.515 48.771 335.02 40.98L345.02 23.661ZM342.341 68.301L359.66 78.301L349.66 95.621L332.341 85.621L342.341 68.301ZM284.3 288.831L197.7 238.831L207.7 221.511C216.892 226.818 273.486 259.494 285.637 266.51C285.638 266.511 285.639 266.511 285.641 266.512C285.642 266.512 285.643 266.513 285.644 266.513L294.3 271.511L284.3 288.831ZM286.979 244.19L235.019 214.19L305.02 92.941C325.371 104.691 337.311 111.585 343.919 115.4C342.408 114.527 341.224 113.844 341.087 113.765C341.338 113.91 345.246 116.166 356.98 122.941C346.645 140.843 295.739 229.017 286.979 244.19ZM323.128 221.579L344.444 184.657C397.896 197.665 436 245.933 436 302.001C436 329.144 427.037 354.863 410.502 375.887C404.538 363.112 395.717 351.799 384.779 342.893C392.145 330.579 396 316.626 396 302.001C396 259.896 363.912 225.233 323.128 221.579ZM326 342.001C357.894 342.001 385.634 362.539 395.482 392.078L405.456 422.001H246.545L256.517 392.083C266.574 361.917 294.789 342.001 326 342.001ZM142.177 382.001C142.869 381.191 149.236 361.901 170.721 361.901H249.47C245.158 368.099 241.602 374.922 238.898 382.001H142.177ZM436 492.001H76V452.001C76 446.487 80.486 442.001 86 442.001C94.23 442.001 408.997 442.001 426 442.001C431.515 442.001 436 446.487 436 452.001V492.001Z" fill="white"/>
<path d="M345.137 116.103C345.741 116.452 346.295 116.771 346.795 117.06C346.244 116.742 345.683 116.418 345.137 116.103Z" fill="white"/>
<path d="M345.071 116.065C345.093 116.078 345.115 116.09 345.137 116.103C345.114 116.09 345.093 116.078 345.071 116.065Z" fill="white"/>
<path d="M343.919 115.4C343.951 115.419 343.984 115.437 344.016 115.456C343.984 115.437 343.951 115.418 343.919 115.4Z" fill="white"/>
<path d="M344.016 115.456C344.383 115.668 344.736 115.872 345.07 116.065C344.709 115.856 344.355 115.651 344.016 115.456Z" fill="white"/>
<path d="M346.795 117.06C346.888 117.114 346.981 117.167 347.073 117.22C346.98 117.167 346.891 117.115 346.795 117.06Z" fill="white"/>
<path d="M350.946 119.457C350.98 119.477 351.009 119.494 351.033 119.507C351.01 119.494 350.981 119.477 350.946 119.457Z" fill="white"/>
<path d="M350.695 119.312C350.8 119.373 350.883 119.421 350.946 119.457C350.881 119.419 350.798 119.371 350.695 119.312Z" fill="white"/>
<path d="M351.033 119.507C351.128 119.562 351.122 119.559 351.033 119.507V119.507Z" fill="white"/>
<path d="M349.295 118.504C349.369 118.547 349.442 118.589 349.511 118.629C349.441 118.588 349.369 118.546 349.295 118.504Z" fill="white"/>
<path d="M349.511 118.628C350.005 118.913 350.415 119.15 350.695 119.312C350.438 119.163 350.051 118.94 349.511 118.628Z" fill="white"/>
<path d="M348.971 118.317C349.082 118.381 349.19 118.443 349.295 118.504C349.192 118.444 349.084 118.382 348.971 118.317Z" fill="white"/>
<path d="M347.072 117.22C347.82 117.652 348.45 118.015 348.971 118.316C348.397 117.985 347.748 117.61 347.072 117.22Z" fill="white"/>
<path d="M366 382.001H326C320.477 382.001 316 386.479 316 392.001C316 397.523 320.477 402.001 326 402.001H366C371.523 402.001 376 397.523 376 392.001C376 386.479 371.523 382.001 366 382.001Z" fill="white"/>
</svg>
