<svg width="512" height="512" viewBox="0 0 512 512" fill="none" xmlns="http://www.w3.org/2000/svg">
<path d="M331.75 282.679V214.285C331.75 204.955 324.845 197.398 316.32 197.398H114.18C105.655 197.398 98.75 204.955 98.75 214.285V422H331.75V320.676V282.679Z" fill="#334FDF"/>
<path d="M481.75 314.61C481.75 310.24 481.21 305.93 480.154 301.84L479.797 302H367.75V422H481.75V314.61Z" fill="#334FDF"/>
<path d="M474.52 291.67L417.72 210.53C413.98 205.18 407.86 202 401.34 202H379.75V302H479.18L479.65 301.84C478.45 298.24 476.72 294.81 474.52 291.67Z" fill="#E3F2FF"/>
<path d="M391.75 442C391.75 416.009 408.409 393.705 431.749 385.435C425.496 383.219 418.769 382 411.75 382C378.522 382 351.75 409.046 351.75 442C351.75 475.09 378.66 502 411.75 502C418.762 502 425.49 500.78 431.75 498.561C408.469 490.307 391.75 468.078 391.75 442Z" fill="white"/>
<path d="M471.75 442C471.75 416.001 455.085 393.703 431.749 385.435C408.409 393.705 391.75 416.009 391.75 442C391.75 468.078 408.469 490.307 431.75 498.561C455.031 490.307 471.75 468.078 471.75 442Z" fill="#51B0FF"/>
<path d="M411.75 422C422.78 422 431.75 430.97 431.75 442C431.75 453.03 422.78 462 411.75 462C400.72 462 391.75 453.03 391.75 442C391.75 430.97 400.72 422 411.75 422Z" fill="#E3F2FF"/>
<path d="M235.75 262V302H195.75V342H155.75V302H115.75V262H155.75V222H195.75V262H235.75Z" fill="#E3F2FF"/>
<path d="M192.746 73.792C179.16 80.185 169.75 93.992 169.75 110V156H215.75V110C215.75 93.997 206.333 80.186 192.746 73.792Z" fill="#FFCE00"/>
<path d="M102.75 442C102.75 415.455 120.126 392.756 144.249 384.925C138.424 383.034 132.211 382 125.75 382C92.522 382 65.75 409.046 65.75 442C65.75 475.09 92.66 502 125.75 502C132.205 502 138.419 500.964 144.25 499.07C120.191 491.254 102.75 468.635 102.75 442Z" fill="white"/>
<path d="M185.75 442C185.75 415.447 168.368 392.754 144.249 384.925C120.126 392.755 102.75 415.455 102.75 442C102.75 468.635 120.191 491.254 144.25 499.07C168.309 491.254 185.75 468.635 185.75 442Z" fill="#51B0FF"/>
<path d="M125.75 422C136.78 422 145.75 430.97 145.75 442C145.75 453.03 136.78 462 125.75 462C114.72 462 105.75 453.03 105.75 442C105.75 430.97 114.72 422 125.75 422Z" fill="#E3F2FF"/>
<path d="M432 352C437.52 352 442 347.52 442 342C442 336.48 437.52 332 432 332C426.48 332 422 336.48 422 342C422 347.52 426.48 352 432 352Z" fill="black"/>
<path d="M392 332H372C366.478 332 362 336.477 362 342C362 347.523 366.478 352 372 352H392C397.522 352 402 347.523 402 342C402 336.477 397.522 332 392 332Z" fill="black"/>
<path d="M116 312H146V342C146 347.523 150.477 352 156 352H196C201.523 352 206 347.523 206 342V312H236C241.522 312 246 307.523 246 302V262C246 256.477 241.522 252 236 252H206V222C206 216.477 201.523 212 196 212H156C150.477 212 146 216.477 146 222V252H116C110.477 252 106 256.477 106 262V302C106 307.523 110.477 312 116 312ZM126 272H156C161.523 272 166 267.523 166 262V232H186V262C186 267.523 190.477 272 196 272H226V292H196C190.477 292 186 296.477 186 302V332H166V302C166 296.477 161.523 292 156 292H126V272Z" fill="black"/>
<path d="M502 412H492V314.61C492 303.93 488.593 293.972 482.962 285.935L426.166 204.801C420.563 196.785 411.376 192 401.59 192H342V176C342 159.458 328.542 146 312 146H226V110C226 82.378 203.626 60 176 60C148.43 60 126 82.43 126 110V146H50C33.458 146 20 159.458 20 176V412H10C4.477 412 0 416.477 0 422C0 427.523 4.477 432 10 432H56.728C56.253 435.298 56 438.635 56 442C56 480.598 87.402 512 126 512C164.598 512 196 480.598 196 442C196 438.635 195.747 435.198 195.272 431.9H342.728C342.253 435.198 342 438.635 342 442C342 480.598 373.402 512 412 512C450.598 512 482 480.598 482 442C482 438.635 481.747 435.298 481.272 432H502C507.522 432 512 427.523 512 422C512 416.477 507.522 412 502 412ZM348.771 412H342V312H471.881C471.956 312.865 472 313.735 472 314.61V405.971C459.511 385.218 436.838 372 412 372C384.834 372 360.264 387.814 348.771 412ZM401.59 212C404.851 212 407.909 213.592 409.778 216.265L462.794 292H356.143L379.072 269.071C382.977 265.166 382.977 258.834 379.072 254.928C375.166 251.023 368.836 251.023 364.929 254.928L342 277.857V212H401.59ZM146 110C146 93.458 159.458 80 176 80C192.569 80 206 93.429 206 110V146H146V110ZM40 176C40 170.486 44.486 166 50 166H312C317.514 166 322 170.486 322 176C322 189.517 322 407.339 322 412H189.229C177.734 387.813 153.164 372 126 372C98.834 372 74.264 387.814 62.771 412H40V176ZM126 492C98.43 492 76 469.57 76 442C76 414.338 98.542 392 126 392C153.559 392 176 414.43 176 442C176 469.57 153.57 492 126 492ZM412 492C384.43 492 362 469.57 362 442C362 414.277 384.596 392 412 392C433.135 392 452.08 405.398 459.145 425.339C459.145 425.34 459.145 425.341 459.146 425.342C461.039 430.684 462 436.289 462 442C462 469.57 439.57 492 412 492Z" fill="black"/>
<path d="M412 412C395.458 412 382 425.458 382 442C382 458.542 395.458 472 412 472C428.542 472 442 458.542 442 442C442 425.458 428.542 412 412 412ZM412 452C406.486 452 402 447.514 402 442C402 436.486 406.486 432 412 432C417.514 432 422 436.486 422 442C422 447.514 417.514 452 412 452Z" fill="black"/>
<path d="M126 412C109.458 412 96 425.458 96 442C96 458.542 109.458 472 126 472C142.542 472 156 458.542 156 442C156 425.458 142.542 412 126 412ZM126 452C120.486 452 116 447.514 116 442C116 436.486 120.486 432 126 432C131.514 432 136 436.486 136 442C136 447.514 131.514 452 126 452Z" fill="black"/>
<path d="M186 30V10C186 4.477 181.523 0 176 0C170.477 0 166 4.477 166 10V30C166 35.523 170.477 40 176 40C181.523 40 186 35.523 186 30Z" fill="black"/>
<path d="M66 110C66 115.523 70.477 120 76 120H96C101.523 120 106 115.523 106 110C106 104.477 101.523 100 96 100H76C70.477 100 66 104.477 66 110Z" fill="black"/>
<path d="M246 110C246 115.523 250.478 120 256 120H276C281.522 120 286 115.523 286 110C286 104.477 281.522 100 276 100H256C250.478 100 246 104.477 246 110Z" fill="black"/>
<path d="M239.639 32.219L225.499 46.359C221.594 50.264 221.594 56.596 225.499 60.502C229.404 64.407 235.736 64.407 239.642 60.502L253.782 46.362C257.687 42.457 257.687 36.125 253.782 32.219C249.875 28.313 243.545 28.313 239.639 32.219Z" fill="black"/>
<path d="M112.359 60.501C116.264 64.406 122.596 64.406 126.502 60.501C130.407 56.596 130.407 50.264 126.502 46.358L112.362 32.218C108.457 28.313 102.125 28.313 98.219 32.218C94.313 36.123 94.314 42.455 98.219 46.361L112.359 60.501Z" fill="black"/>
</svg>
