<svg width="512" height="512" viewBox="0 0 512 512" fill="none" xmlns="http://www.w3.org/2000/svg">
<path d="M467.285 180H109.715C90.544 180 75 196.119 75 216V450C75 469.881 90.544 486 109.715 486H467.284C486.456 486 502 469.881 502 450V216C502 196.119 486.456 180 467.285 180Z" fill="#334FDF"/>
<path d="M116 146H76V486H116V146Z" fill="white"/>
<path d="M116 146H97V486H116V146Z" fill="#E3F2FF"/>
<path d="M436 146H396V486H436V146Z" fill="#E3F2FF"/>
<path d="M326 26H220C192.39 26 170 48.39 170 76V146H176V86C176 74.95 184.95 66 196 66H230H316C327.05 66 336 74.95 336 86V146H370H376V76C376 48.39 353.61 26 326 26Z" fill="#51B0FF" fill-opacity="0.4"/>
<path d="M254 312V252H286V226H226V286H166V346H194V312H254Z" fill="white"/>
<path d="M314 286H286V252H254V312H194V346H226V372V406H254H286V346H346V312V286H314Z" fill="#E3F2FF"/>
<path d="M396.25 236C390.73 236 386.25 240.48 386.25 246C386.25 251.52 390.73 256 396.25 256C401.77 256 406.25 251.52 406.25 246C406.25 240.48 401.77 236 396.25 236Z" fill="black"/>
<path d="M116.25 236C110.73 236 106.25 240.48 106.25 246C106.25 251.52 110.73 256 116.25 256C121.77 256 126.25 251.52 126.25 246C126.25 240.48 121.77 236 116.25 236Z" fill="black"/>
<path d="M346.25 276H296.25V226C296.25 220.478 291.772 216 286.25 216H226.25C220.728 216 216.25 220.478 216.25 226V276H166.25C160.728 276 156.25 280.478 156.25 286V346C156.25 351.522 160.728 356 166.25 356H216.25V406C216.25 411.522 220.728 416 226.25 416H286.25C291.772 416 296.25 411.522 296.25 406V356H346.25C351.772 356 356.25 351.522 356.25 346V286C356.25 280.478 351.772 276 346.25 276ZM336.25 336H286.25C280.728 336 276.25 340.478 276.25 346V396H236.25V346C236.25 340.478 231.772 336 226.25 336H176.25V296H226.25C231.772 296 236.25 291.522 236.25 286V236H276.25V286C276.25 291.522 280.728 296 286.25 296H336.25V336Z" fill="black"/>
<path d="M462 136H386V76C386 42.916 359.084 16 326 16H186C152.916 16 126 42.916 126 76V136H50C22.43 136 0 158.43 0 186V446C0 473.57 22.43 496 50 496H462C489.57 496 512 473.57 512 446V186C512 158.43 489.57 136 462 136ZM396 276C390.478 276 386 280.478 386 286V476H126V286C126 280.478 121.522 276 116 276C110.478 276 106 280.478 106 286V476H86V156H106V206C106 211.522 110.478 216 116 216C121.522 216 126 211.522 126 206V156H386V206C386 211.522 390.478 216 396 216C401.522 216 406 211.522 406 206V156H426V476H406V286C406 280.478 401.522 276 396 276ZM326 136H186V86C186 80.486 190.486 76 196 76H316C321.514 76 326 80.486 326 86V136ZM146 76C146 53.944 163.944 36 186 36H326C348.056 36 366 53.944 366 76V136H346V86C346 69.458 332.542 56 316 56H196C179.458 56 166 69.458 166 86V136H146V76ZM20 446V186C20 169.458 33.458 156 50 156H66V476H50C33.458 476 20 462.542 20 446ZM492 446C492 462.542 478.542 476 462 476H446V156H462C478.542 156 492 169.458 492 186V446Z" fill="black"/>
</svg>
