<svg width="512" height="512" viewBox="0 0 512 512" fill="none" xmlns="http://www.w3.org/2000/svg">
<path d="M419.806 51H164.694C155.885 51 148.75 59.93 148.75 70.956V482.045C148.75 493.071 155.885 502.001 164.694 502.001H419.805C428.614 502.001 435.749 493.071 435.749 482.045V70.956C435.75 59.93 428.615 51 419.806 51Z" fill="#334FDF"/>
<path d="M395.75 90H115.75V462H395.75V90Z" fill="white"/>
<path d="M395.75 124H164.75V462H395.75V124Z" fill="#E3F2FF"/>
<path d="M236.75 216C236.75 190.061 253.207 167.972 276.25 159.596C269.854 157.271 262.951 156 255.75 156C222.61 156 195.75 182.86 195.75 216C195.75 249.14 222.61 276 255.75 276C262.951 276 269.854 274.729 276.25 272.404C253.207 264.028 236.75 241.939 236.75 216Z" fill="white"/>
<path d="M315.75 216C315.75 190.061 299.293 167.972 276.25 159.596C253.207 167.972 236.75 190.061 236.75 216C236.75 241.939 253.207 264.028 276.25 272.404C299.293 264.028 315.75 241.939 315.75 216Z" fill="#51B0FF" fill-opacity="0.4"/>
<path d="M260.75 60C260.75 43.373 270.898 29.118 285.336 23.082C278.02 15.045 267.474 10 255.75 10C233.66 10 215.75 27.91 215.75 50H175.75V90H240.75V60H260.75Z" fill="white"/>
<path d="M295.75 50C295.75 39.634 291.805 30.189 285.336 23.082C270.898 29.118 260.75 43.373 260.75 60H240.75V90H335.75V50H295.75Z" fill="#FFCE00"/>
<path d="M176 346C181.52 346 186 341.52 186 336C186 330.48 181.52 326 176 326C170.48 326 166 330.48 166 336C166 341.52 170.48 346 176 346Z" fill="black"/>
<path d="M304.995 40C300.35 17.206 280.146 0 256 0C231.854 0 211.65 17.206 207.005 40C196.616 40 106.953 40 96 40C79.458 40 66 53.458 66 70V482C66 498.542 79.458 512 96 512H416C432.542 512 446 498.542 446 482V70C446 53.458 432.542 40 416 40C405.047 40 315.384 40 304.995 40ZM386 100V452H126V100H386ZM216 60C221.522 60 226 55.522 226 50C226 33.458 239.458 20 256 20C272.542 20 286 33.458 286 50C286 55.522 290.478 60 296 60H326V80H186V60H216ZM426 70V482C426 487.514 421.514 492 416 492H96C90.486 492 86 487.514 86 482V70C86 64.486 90.486 60 96 60H166V80H116C110.478 80 106 84.478 106 90V462C106 467.522 110.478 472 116 472H396C401.522 472 406 467.522 406 462V90C406 84.478 401.522 80 396 80H346V60H416C421.514 60 426 64.486 426 70Z" fill="black"/>
<path d="M176 406H336C341.522 406 346 401.522 346 396C346 390.478 341.522 386 336 386H176C170.478 386 166 390.478 166 396C166 401.522 170.478 406 176 406Z" fill="black"/>
<path d="M206 336C206 341.522 210.478 346 216 346H336C341.522 346 346 341.522 346 336C346 330.478 341.522 326 336 326H216C210.478 326 206 330.478 206 336Z" fill="black"/>
<path d="M256 286C294.598 286 326 254.598 326 216C326 177.402 294.598 146 256 146C217.402 146 186 177.402 186 216C186 254.598 217.402 286 256 286ZM256 166C283.57 166 306 188.43 306 216C306 243.57 283.57 266 256 266C228.43 266 206 243.57 206 216C206 188.43 228.43 166 256 166Z" fill="black"/>
<path d="M236 226H246V236C246 241.522 250.478 246 256 246C261.522 246 266 241.522 266 236V226H276C281.522 226 286 221.522 286 216C286 210.478 281.522 206 276 206H266V196C266 190.478 261.522 186 256 186C250.478 186 246 190.478 246 196V206H236C230.478 206 226 210.478 226 216C226 221.522 230.478 226 236 226Z" fill="black"/>
</svg>
