<svg width="512" height="512" viewBox="0 0 512 512" fill="none" xmlns="http://www.w3.org/2000/svg">
<path d="M228.47 352.001C213.32 352.001 199.47 360.561 192.69 374.111L183.75 392.001H249.75L270.76 352.001H228.47Z" fill="#334FDF"/>
<path d="M425.75 432.001C401.759 432.001 285.334 432.001 194.75 432.001C183.7 432.001 174.75 440.951 174.75 452.001V502.001H445.75V452.001C445.75 440.951 436.8 432.001 425.75 432.001Z" fill="#334FDF"/>
<path d="M339.17 173.361L323.172 201.068C373.692 210.34 412.101 255.326 412.101 308.488C412.101 332.603 404.193 354.896 390.845 372.934L406.68 394.811H406.69C430.78 371.201 445.75 338.321 445.75 302.001C445.75 238.311 399.71 184.421 339.17 173.361Z" fill="#334FDF"/>
<path d="M299.588 431.497C299.588 431.497 299.589 431.493 299.59 431.492C299.589 431.494 299.589 431.495 299.588 431.497Z" fill="#E3F2FF"/>
<path d="M299.582 431.517C299.583 431.514 299.584 431.512 299.585 431.509C299.583 431.511 299.582 431.514 299.582 431.517Z" fill="#E3F2FF"/>
<path d="M299.588 431.497L299.584 431.509L299.586 431.505L299.588 431.497Z" fill="#E3F2FF"/>
<path d="M299.42 432.001L299.422 431.996L299.42 432.001Z" fill="#E3F2FF"/>
<path d="M418.95 431.61C418.955 431.625 418.961 431.642 418.967 431.66C418.961 431.642 418.955 431.626 418.95 431.61Z" fill="#E3F2FF"/>
<path d="M299.543 431.634C299.555 431.598 299.568 431.56 299.582 431.517C299.573 431.544 299.559 431.585 299.543 431.634Z" fill="#E3F2FF"/>
<path d="M299.495 431.776C299.487 431.801 299.478 431.827 299.47 431.85C299.476 431.831 299.482 431.813 299.49 431.791C299.492 431.786 299.494 431.78 299.495 431.776Z" fill="#E3F2FF"/>
<path d="M418.95 431.61C418.946 431.597 418.941 431.583 418.937 431.572C418.939 431.577 418.94 431.581 418.942 431.586C418.944 431.593 418.947 431.602 418.95 431.61Z" fill="#E3F2FF"/>
<path d="M419.075 431.986C419.075 431.987 419.075 431.987 419.076 431.988C419.078 431.993 419.079 431.996 419.08 432.001C419.079 431.997 419.077 431.991 419.075 431.986Z" fill="#E3F2FF"/>
<path d="M418.937 431.572C418.915 431.507 418.903 431.469 418.911 431.493C418.912 431.495 418.913 431.498 418.913 431.5C418.918 431.513 418.925 431.536 418.937 431.572Z" fill="#E3F2FF"/>
<path d="M299.435 431.957C299.443 431.932 299.455 431.896 299.471 431.851C299.449 431.917 299.431 431.972 299.422 431.997C299.427 431.982 299.431 431.97 299.435 431.957Z" fill="#E3F2FF"/>
<path d="M419.076 431.988C419.074 431.983 419.073 431.979 419.071 431.974L419.072 431.977C419.061 431.945 419.042 431.888 419.012 431.797C419.023 431.829 419.033 431.86 419.042 431.888C419.028 431.847 419.016 431.81 419.005 431.776C419.007 431.783 419.01 431.79 419.012 431.797C419.009 431.789 419.006 431.779 419.003 431.77C418.989 431.728 418.977 431.691 418.966 431.66C418.972 431.679 418.979 431.699 418.986 431.719C418.973 431.679 418.958 431.635 418.942 431.586C418.933 431.559 418.924 431.531 418.913 431.501C418.912 431.499 418.911 431.496 418.911 431.496C418.256 429.531 415.391 420.935 404.72 388.922C397.119 366.118 380.304 348.314 359.25 339.051C338.143 348.341 321.354 366.2 313.78 388.922C303.089 420.994 300.233 429.564 299.585 431.506C299.577 431.529 299.561 431.578 299.533 431.661C299.536 431.652 299.539 431.643 299.542 431.635C299.537 431.651 299.53 431.67 299.525 431.685C299.516 431.712 299.506 431.743 299.494 431.777C299.495 431.775 299.496 431.773 299.496 431.773C299.495 431.777 299.492 431.786 299.489 431.793C299.473 431.842 299.455 431.896 299.434 431.959C299.428 431.977 299.424 431.99 299.421 431.999C299.42 432.001 299.42 432.002 299.419 432.004H419.079C419.079 431.997 419.078 431.993 419.076 431.988Z" fill="#51B0FF"/>
<path d="M349.47 59.437C364.132 67.902 379.058 76.52 391.39 83.641L411.39 49.001L369.47 24.798L349.47 59.437Z" fill="#51B0FF"/>
<path d="M353.068 109.284L373.067 74.6455L338.428 54.6465L318.429 89.2848L353.068 109.284Z" fill="#334FDF"/>
<path d="M252.458 235.949L290.391 257.85C290.554 257.568 289.072 260.13 370.391 119.28C358.747 112.557 345.438 104.873 332.458 97.379L252.458 235.949Z" fill="#51B0FF"/>
<path d="M222.912 265.078L287.71 302.49L307.71 267.85C294.656 260.313 267.547 244.661 242.912 230.437L222.912 265.078Z" fill="#334FDF"/>
<path d="M286 382.001C280.48 382.001 276 386.481 276 392.001C276 397.521 280.48 402.001 286 402.001C291.52 402.001 296 397.521 296 392.001C296 386.481 291.52 382.001 286 382.001Z" fill="black"/>
<path d="M86 422.001C69.458 422.001 56 435.459 56 452.001V502.001C56 507.523 60.477 512.001 66 512.001H446C451.523 512.001 456 507.523 456 502.001V452.001C456 435.641 442.834 422.306 426.542 422.015L418.347 397.429C442.673 371.408 456 337.766 456 302.001C456 239.017 413.939 183.953 354.788 166.739L379.3 124.281C382.061 119.498 380.422 113.383 375.639 110.621L366.979 105.621L376.979 88.301L385.639 93.301C390.411 96.056 396.531 94.435 399.299 89.641L419.299 55.001C422.059 50.221 420.42 44.102 415.639 41.341L346.359 1.34101C341.578 -1.41899 335.46 0.219012 332.699 5.00101L312.699 39.641C309.939 44.421 311.577 50.54 316.359 53.301L325.019 58.301L315.019 75.621L306.359 70.621C301.58 67.861 295.459 69.499 292.699 74.281L217.699 204.19L209.039 199.19C204.261 196.429 198.14 198.068 195.379 202.85L175.379 237.491C172.617 242.274 174.256 248.389 179.039 251.151L282.959 311.151C287.709 313.895 293.841 312.302 296.619 307.491L316.619 272.85C319.381 268.067 317.742 261.952 312.959 259.19L304.299 254.19L311.684 241.399C346.55 238.9 376 266.9 376 302.001C376 312.703 373.241 322.92 367.98 331.984C354.999 325.432 340.663 322.001 326 322.001C305.055 322.001 284.72 329.081 268.307 342.001H170.72C151.663 342.001 134.526 352.591 125.994 369.642L117.054 387.532C115.505 390.632 115.671 394.312 117.493 397.26C119.315 400.208 122.534 402.002 125.999 402.002H232.128L225.461 422.002L86 422.001ZM436 452.001V492.001H76V452.001C76 446.487 80.486 442.001 86 442.001C94.23 442.001 408.997 442.001 426 442.001C431.515 442.001 436 446.487 436 452.001ZM342.341 68.301L359.66 78.301L349.66 95.621L332.341 85.621L342.341 68.301ZM345.02 23.661L396.98 53.661L386.98 70.98C375.413 64.302 348.515 48.771 335.02 40.98L345.02 23.661ZM305.02 92.941C403.137 149.591 305.879 93.437 356.98 122.941C346.645 140.843 295.739 229.017 286.979 244.19L235.019 214.19L305.02 92.941ZM284.3 288.831L197.7 238.831L207.7 221.511C216.892 226.818 273.486 259.494 285.637 266.51C285.638 266.511 285.639 266.511 285.641 266.512C285.642 266.512 285.643 266.513 285.644 266.513L294.3 271.511L284.3 288.831ZM323.128 221.579L344.444 184.657C397.896 197.665 436 245.933 436 302.001C436 329.144 427.037 354.863 410.502 375.887C404.538 363.112 395.717 351.799 384.779 342.893C392.145 330.579 396 316.626 396 302.001C396 259.896 363.912 225.233 323.128 221.579ZM170.721 361.901H249.47C245.158 368.099 241.602 374.922 238.898 382.001H142.177C142.869 381.191 149.236 361.901 170.721 361.901ZM256.517 392.083C266.574 361.917 294.789 342.001 326 342.001C357.894 342.001 385.634 362.539 395.482 392.078L405.456 422.001H246.545L256.517 392.083Z" fill="black"/>
<path d="M366 382.001H326C320.477 382.001 316 386.479 316 392.001C316 397.523 320.477 402.001 326 402.001H366C371.523 402.001 376 397.523 376 392.001C376 386.479 371.523 382.001 366 382.001Z" fill="black"/>
</svg>
